<?xml version="1.0" standalone="no"?>
<!DOCTYPE svg PUBLIC "-//W3C//DTD SVG 20010904//EN"
 "http://www.w3.org/TR/2001/REC-SVG-20010904/DTD/svg10.dtd">
<svg version="1.0" xmlns="http://www.w3.org/2000/svg"
 width="726.000000pt" height="243.000000pt" viewBox="0 0 726.000000 243.000000"
 preserveAspectRatio="xMidYMid meet">

<g transform="translate(0.000000,243.000000) scale(0.100000,-0.100000)"
fill="#000000" stroke="none">
<path d="M4466 1910 c-37 -12 -75 -47 -92 -87 -18 -41 -18 -133 0 -198 15 -55
127 -328 182 -441 l34 -72 -53 -88 c-52 -89 -122 -171 -164 -193 -31 -16 -85
-14 -111 5 -29 20 -28 32 6 40 47 12 119 52 141 80 22 28 42 88 36 107 -2 7
-6 25 -9 40 -14 60 -111 85 -192 48 -76 -35 -123 -116 -129 -226 -2 -42 -8
-54 -36 -77 -37 -31 -49 -34 -67 -16 -17 17 -15 43 14 184 14 69 23 132 20
140 -7 18 -60 18 -76 -1 -6 -8 -27 -58 -45 -111 -38 -109 -81 -179 -110 -179
-29 0 -30 48 -4 170 12 57 19 111 16 120 -8 19 -61 20 -80 0 -24 -24 -66 -180
-67 -247 0 -5 -22 -8 -50 -8 -38 0 -52 -4 -60 -19 -5 -11 -10 -82 -10 -160 0
-144 -11 -225 -35 -257 -11 -16 -16 -17 -27 -6 -19 19 -15 215 6 327 9 50 35
155 57 234 22 80 39 154 37 165 -5 33 -71 35 -101 3 -16 -18 -30 -24 -48 -20
-99 19 -259 -131 -259 -243 0 -36 -38 -89 -71 -99 -53 -17 -62 45 -29 214 23
115 19 131 -31 131 -15 0 -34 -7 -42 -15 -17 -16 -41 -115 -52 -207 -6 -50
-12 -62 -46 -93 -43 -39 -60 -43 -79 -19 -11 12 -9 36 8 132 26 139 27 166 6
186 -53 54 -162 -22 -234 -164 -13 -25 -25 -40 -27 -34 -2 6 6 53 17 103 11
51 18 97 15 102 -10 16 -64 10 -84 -10 -21 -21 -51 -139 -51 -202 0 -36 -6
-48 -44 -85 -50 -50 -72 -55 -88 -18 -12 26 -9 61 23 237 14 78 8 89 -46 85
-40 -4 -60 -45 -80 -172 -19 -116 -24 -127 -69 -155 -70 -44 -80 -8 -46 166
27 141 14 173 -66 158 -48 -9 -114 -71 -154 -146 -17 -33 -34 -58 -37 -56 -2
3 1 31 7 64 14 71 10 123 -11 136 -9 5 -32 7 -54 3 -48 -9 -120 -82 -154 -154
-14 -29 -28 -52 -31 -52 -8 0 3 68 20 129 18 64 14 81 -19 81 -46 0 -76 -31
-90 -97 -15 -65 -22 -73 -67 -73 -28 0 -32 4 -44 43 -17 57 -43 91 -84 111
-99 47 -231 -19 -265 -133 -17 -58 -13 -150 8 -197 34 -75 114 -115 192 -94
53 14 113 70 136 125 15 37 23 45 45 45 14 0 33 3 42 6 13 5 16 -3 16 -48 0
-67 16 -115 42 -129 30 -16 65 12 78 63 20 81 63 181 91 212 41 46 49 28 36
-84 -12 -115 -5 -164 28 -186 41 -27 67 -1 98 98 30 96 84 191 111 196 17 4
18 -1 12 -50 -21 -169 -20 -192 7 -224 22 -26 31 -29 78 -27 41 1 61 8 97 33
l46 32 18 -25 c39 -54 115 -55 184 -2 l34 26 10 -25 c5 -14 19 -30 30 -36 38
-20 62 8 93 107 30 96 81 186 110 191 21 4 21 -8 3 -113 -16 -91 -12 -131 16
-162 39 -42 109 -38 182 12 l37 25 27 -31 c40 -44 92 -45 161 -2 50 31 51 32
62 12 14 -27 74 -52 102 -43 12 3 33 16 46 28 l24 21 -6 -35 c-4 -19 -9 -82
-13 -140 -8 -130 9 -204 57 -244 37 -31 54 -32 96 -6 63 38 103 173 103 350
l0 100 25 0 c17 0 39 -14 64 -40 21 -22 44 -40 52 -40 31 0 77 40 100 86 l23
48 8 -34 c13 -54 28 -78 57 -89 36 -15 94 0 146 38 l42 30 19 -20 c33 -36 76
-52 139 -52 103 0 171 53 184 144 6 49 51 144 95 204 14 19 15 18 56 -24 23
-23 44 -40 48 -37 3 4 -14 26 -38 51 -41 42 -42 45 -27 68 35 54 146 185 243
288 132 139 156 175 152 225 -2 27 -11 43 -31 58 -41 30 -152 27 -235 -7 l-60
-24 -5 60 c-7 75 -44 133 -107 165 -47 23 -67 26 -114 12z m114 -25 c61 -32
100 -111 100 -203 l0 -56 29 28 c59 56 222 77 276 34 53 -41 26 -93 -135 -263
-100 -106 -180 -200 -216 -254 l-28 -43 -16 22 c-26 40 -188 426 -205 488 -20
79 -19 128 5 179 33 74 120 104 190 68z m-1124 -822 c-3 -10 -15 -58 -27 -106
-24 -96 -48 -137 -83 -137 -34 0 -46 19 -46 74 0 91 67 186 131 186 24 0 29
-4 25 -17z m892 -12 c5 -35 -15 -65 -58 -90 -69 -39 -87 -21 -55 56 23 55 34
64 74 61 29 -2 37 -7 39 -27z m-3058 -17 c0 -39 12 -67 42 -101 19 -20 19 -23
3 -56 -18 -39 -62 -63 -94 -52 -66 21 -68 197 -4 234 37 21 53 13 53 -25z"/>
<path d="M580 1553 c-125 -14 -272 -74 -292 -118 -13 -29 -3 -75 17 -75 9 0
48 16 87 36 207 104 404 73 471 -75 41 -92 16 -278 -49 -373 -56 -80 -174
-132 -286 -126 l-53 3 3 45 c5 71 29 215 58 337 15 62 24 119 20 128 -4 12
-17 15 -53 13 -44 -3 -50 -6 -65 -38 -20 -40 -72 -290 -89 -428 -15 -120 -8
-138 58 -148 26 -5 84 -8 128 -8 229 1 390 108 456 304 28 86 31 232 5 307
-23 69 -92 145 -161 177 -48 23 -164 48 -205 44 -8 -1 -31 -3 -50 -5z"/>
<path d="M5163 1540 c-144 -30 -239 -130 -263 -276 -6 -33 -13 -122 -18 -199
-7 -140 -7 -140 -32 -143 -100 -13 -150 -49 -150 -110 0 -97 142 -120 223 -37
19 19 38 35 44 35 5 0 59 -19 119 -42 178 -68 279 -55 373 47 32 35 41 52 41
80 0 51 -22 54 -69 12 -51 -46 -99 -61 -175 -53 -61 6 -251 47 -260 57 -8 7
32 356 46 402 28 93 131 154 213 126 53 -19 67 -48 59 -124 -5 -48 -3 -64 9
-74 24 -20 68 -9 91 22 32 43 29 142 -7 195 -44 67 -148 102 -244 82z"/>
<path d="M6240 1539 c-82 -14 -173 -61 -229 -118 -172 -176 -188 -546 -30
-663 66 -49 167 -40 200 17 10 17 26 80 37 140 17 106 19 110 42 107 36 -4 50
-21 110 -132 59 -111 90 -144 152 -160 67 -19 128 2 199 67 53 49 59 59 59 94
0 32 -4 39 -19 39 -11 0 -29 -12 -40 -27 -54 -68 -123 -91 -168 -55 -12 9 -42
53 -66 97 -27 49 -56 88 -75 100 -17 11 -31 23 -32 27 0 3 16 12 35 18 55 18
141 102 159 157 38 112 2 214 -95 264 -32 16 -146 41 -174 38 -5 -1 -35 -5
-65 -10z m150 -114 c45 -23 60 -53 60 -116 0 -64 -24 -109 -79 -146 -34 -23
-97 -40 -108 -29 -3 3 1 45 10 93 13 77 14 91 1 111 -18 27 -53 29 -86 3 -19
-15 -27 -36 -37 -93 -20 -116 -21 -118 -45 -118 -50 0 -66 -71 -20 -92 24 -11
25 -15 19 -61 -14 -100 -29 -142 -51 -145 -50 -7 -83 76 -83 208 -1 216 81
353 239 397 53 15 139 9 180 -12z"/>
<path d="M2350 1388 c-40 -15 -60 -39 -60 -73 0 -41 27 -65 72 -65 50 0 88 32
88 74 0 51 -49 83 -100 64z"/>
<path d="M3073 1391 c-59 -16 -85 -88 -45 -124 23 -21 81 -22 109 -2 26 18 38
67 24 93 -13 24 -58 41 -88 33z"/>
<path d="M5633 890 c-64 -27 -56 -147 11 -164 29 -7 74 8 92 32 18 23 18 106
0 121 -20 16 -76 23 -103 11z"/>
</g>
</svg>
